<svg width="39" height="39" viewBox="0 0 39 39" fill="none" xmlns="http://www.w3.org/2000/svg">
<path d="M32.1738 17.625L28.8644 19.7168C28.24 20.107 27.4439 20.0134 26.9287 19.4982L19.8573 12.4268C19.3421 11.9117 19.2485 11.1155 19.6387 10.4911L21.7305 7.18177C23.0106 5.16805 25.5706 5.07438 27.4595 6.94761L32.4235 11.9117C34.1719 13.6756 34.0626 16.423 32.1738 17.625Z" fill="white"/>
<path d="M23.8824 32.064L10.2703 33.6563C10.1993 33.6658 10.1288 33.6736 10.0589 33.6799C8.91957 33.7822 8.63002 32.4399 9.43886 31.6311L13.3767 27.6932C13.8763 27.2093 13.8763 26.4444 13.3767 25.9604C12.9084 25.4765 12.1435 25.4765 11.644 25.9604L7.70612 29.8983C6.89729 30.7072 5.56925 30.4169 5.66166 29.2768C5.66687 29.2126 5.67327 29.1478 5.68089 29.0825L7.28875 15.4704C7.69461 12.0673 8.94343 10.9434 12.5338 11.1619L14.8753 11.3024C15.6402 11.3493 16.3583 11.6771 16.9046 12.2234L27.1294 22.4481C27.6757 22.9945 28.0035 23.7126 28.0347 24.4775L28.1752 26.819C28.5343 30.425 27.3011 31.6738 23.8824 32.064Z" fill="white"/>
</svg>
