<svg width="43" height="43" viewBox="0 0 43 43" fill="none" xmlns="http://www.w3.org/2000/svg">
<path d="M41.0366 20.7965C41.0366 22.7585 39.6016 24.4285 37.7221 24.4285H34.6934C33.2838 18.3647 27.8359 13.8311 21.353 13.8311C14.8701 13.8311 9.42216 18.3646 8.01256 24.4285H4.99017C2.01858 24.4285 0.564533 20.4981 2.64084 18.225C3.88535 16.8661 5.41559 17.2154 5.75846 17.1582C4.46316 12.8533 8.53322 8.58632 12.5398 10.4404C13.3843 5.95755 17.0099 2.58594 21.353 2.58594C25.6961 2.58594 29.3153 5.94485 30.1725 10.415C34.1029 8.62436 38.192 12.8469 36.8967 17.1582H37.7221C39.5571 17.1582 41.0366 18.79 41.0366 20.7965Z" fill="white"/>
<path d="M15.3918 21.603C13.9123 21.1712 12.6043 20.5871 11.582 19.8696C13.798 17.0376 17.2204 15.1773 21.1127 15.1074C18.5983 15.2662 16.4775 17.825 15.3918 21.603Z" fill="white"/>
<path d="M20.7195 16.4536V22.3968C19.3035 22.3651 17.9193 22.2 16.6367 21.9206V21.9142C17.5003 18.9871 19.0051 16.8727 20.7195 16.4536ZM26.0721 21.9142V21.9206C24.7895 22.2 23.4053 22.3651 21.9894 22.3968V16.4536C23.7038 16.8727 25.2086 18.9871 26.0721 21.9142Z" fill="white"/>
<path d="M31.1243 19.8696C30.102 20.5871 28.794 21.1775 27.3146 21.603C26.2288 17.825 24.108 15.2662 21.5937 15.1074C25.4732 15.1773 28.9019 17.0313 31.1243 19.8696ZM10.7994 20.9808C11.9677 21.8061 13.4217 22.4602 15.0599 22.93C14.7996 24.1619 14.6409 25.4952 14.6028 26.8921H8.94531C9.05325 24.7398 9.71361 22.7205 10.7994 20.9808ZM20.7174 23.7555V26.8922H15.879C15.9108 25.6096 16.0632 24.3841 16.3044 23.2412C17.6886 23.546 19.1744 23.7238 20.7174 23.7555ZM26.4002 23.2412C26.6414 24.3841 26.7939 25.6096 26.832 26.8922H21.9873V23.7555C23.5302 23.7238 25.016 23.546 26.4002 23.2412ZM33.7594 26.8922H28.1019C28.0638 25.4953 27.9051 24.1619 27.6447 22.9301C29.2766 22.4665 30.7306 21.8062 31.9053 20.9872C32.9911 22.7269 33.6514 24.7461 33.7594 26.8922ZM14.6028 28.1621C14.6472 29.667 14.825 31.0893 15.1171 32.3972V32.4036C13.517 32.8418 12.0756 33.4513 10.8946 34.2196C9.75171 32.4544 9.05325 30.3844 8.94531 28.1621H14.6028ZM15.879 28.1621H20.7174V31.6099C19.2062 31.6416 17.7394 31.813 16.3679 32.0988C16.0886 30.8797 15.9171 29.5463 15.879 28.1621ZM26.832 28.1621C26.7875 29.5464 26.6161 30.8797 26.3367 32.0989C24.9652 31.8067 23.4985 31.6417 21.9873 31.61V28.1621H26.832ZM21.111 39.9469C17.314 39.877 13.9361 38.0991 11.7074 35.3498C12.7487 34.6894 14.0377 34.1434 15.479 33.7497C16.5902 37.3753 18.6728 39.8009 21.111 39.9469Z" fill="white"/>
<path d="M16.7383 33.4513C17.9955 33.1846 19.3416 33.0322 20.7195 33.0005V38.6007C19.0686 38.1944 17.6082 36.2196 16.7383 33.4513ZM21.9894 38.6007V33.0005C23.3672 33.0322 24.7133 33.1846 25.9705 33.4513C25.1006 36.2196 23.6402 38.1944 21.9894 38.6007Z" fill="white"/>
<path d="M30.9974 35.3499C28.7687 38.0992 25.3908 39.8771 21.5938 39.9469C24.032 39.8009 26.1146 37.3754 27.2258 33.7498C28.6672 34.1434 29.9561 34.6831 30.9974 35.3499ZM31.8102 34.2196C30.6292 33.4513 29.1942 32.8354 27.5877 32.3973C27.8798 31.0893 28.0576 29.667 28.102 28.1621H33.7595C33.6515 30.3845 32.9531 32.4544 31.8102 34.2196Z" fill="white"/>
</svg>
