<svg width="42" height="42" viewBox="0 0 42 42" fill="none" xmlns="http://www.w3.org/2000/svg">
<path d="M36.7761 21.8779C37.4951 21.8779 38.06 21.2959 38.06 20.594C38.06 19.875 37.4951 19.3101 36.7761 19.3101H34.6363V15.5439H36.7761C37.4951 15.5439 38.06 14.979 38.06 14.26C38.06 13.5581 37.4951 12.9761 36.7761 12.9761H34.2425C33.4208 10.2542 31.281 8.11432 28.5591 7.29261V4.75901C28.5591 4.05714 27.977 3.4751 27.2751 3.4751C26.5733 3.4751 25.9912 4.05714 25.9912 4.75901V6.89887H22.2251V4.75901C22.2251 4.05714 21.643 3.4751 20.9411 3.4751C20.2393 3.4751 19.6572 4.05714 19.6572 4.75901V6.89887H15.9082V4.75901C15.9082 4.05714 15.3262 3.4751 14.6243 3.4751C13.9053 3.4751 13.3404 4.05714 13.3404 4.75901V7.29261C10.6013 8.11432 8.46148 10.2542 7.63978 12.9761H5.10618C4.40431 12.9761 3.82227 13.5581 3.82227 14.26C3.82227 14.979 4.40431 15.5439 5.10618 15.5439H7.24604V19.3101H5.10618C4.40431 19.3101 3.82227 19.875 3.82227 20.594C3.82227 21.2959 4.40431 21.8779 5.10618 21.8779H7.24604V25.6441H5.10618C4.40431 25.6441 3.82227 26.209 3.82227 26.928C3.82227 27.6298 4.40431 28.2119 5.10618 28.2119H7.63978C8.44436 30.9338 10.6013 33.0737 13.3404 33.8954V36.429C13.3404 37.1308 13.9053 37.7129 14.6243 37.7129C15.3262 37.7129 15.9082 37.1308 15.9082 36.429V34.2891H19.6744V36.429C19.6744 37.1308 20.2393 37.7129 20.9583 37.7129C21.6601 37.7129 22.2422 37.1308 22.2422 36.429V34.2891H25.9912V36.429C25.9912 37.1308 26.5733 37.7129 27.2751 37.7129C27.977 37.7129 28.5591 37.1308 28.5591 36.429V33.8954C31.281 33.0737 33.4208 30.9338 34.2425 28.2119H36.7761C37.4951 28.2119 38.06 27.6298 38.06 26.928C38.06 26.209 37.4951 25.6441 36.7761 25.6441H34.6363V21.8779H36.7761ZM29.9457 24.4629C29.9457 27.2875 27.6346 29.5985 24.81 29.5985H17.0723C14.2477 29.5985 11.9366 27.2875 11.9366 24.4629V16.7251C11.9366 13.9005 14.2477 11.5894 17.0723 11.5894H24.81C27.6346 11.5894 29.9457 13.9005 29.9457 16.7251V24.4629Z" fill="white"/>
<path d="M17.552 27.8694H24.3482C26.4881 27.8694 28.2342 26.1404 28.2342 23.9835V17.1873C28.2342 15.0474 26.5052 13.3013 24.3482 13.3013H17.552C15.4121 13.3013 13.666 15.0303 13.666 17.1873V23.9835C13.666 26.1404 15.395 27.8694 17.552 27.8694Z" fill="white"/>
</svg>
