<svg width="44" height="44" viewBox="0 0 44 44" fill="none" xmlns="http://www.w3.org/2000/svg">
<path d="M15.5882 32.9218L12.088 38.7724H8.09961L12.6534 30.5078" fill="white"/>
<path d="M31.2418 31.1084L35.7862 38.7723H31.7978L28.3672 32.9423" fill="white"/>
<path d="M28.3178 30.1125L16.064 30.2869C15.5776 29.3519 15.3705 28.4109 15.3834 27.53C17.1606 29.0649 19.4766 29.9921 22.0092 29.9921C24.6698 29.9921 27.0915 28.9678 28.9013 27.2911C28.9555 28.1849 28.7828 29.15 28.3178 30.1125ZM22.1458 20.8733C20.6488 20.8733 19.4233 19.6487 19.4233 18.1508V16.9133C19.4233 15.4163 20.6479 14.1908 22.1458 14.1908C23.6437 14.1908 24.8683 15.4154 24.8683 16.9133V18.1508C24.8683 19.6479 23.6437 20.8733 22.1458 20.8733ZM21.8699 11.3764C21.6328 11.3764 21.4403 11.1839 21.4403 10.9467V6.04395C21.4403 5.80676 21.6328 5.61426 21.8699 5.61426C22.1071 5.61426 22.2996 5.80676 22.2996 6.04395V10.9467C22.2996 11.1839 22.1071 11.3764 21.8699 11.3764Z" fill="white"/>
<path d="M35.1906 19.793H30.2879C30.0507 19.793 29.8582 19.6005 29.8582 19.3633C29.8582 19.1261 30.0507 18.9336 30.2879 18.9336H35.1906C35.4278 18.9336 35.6203 19.1261 35.6203 19.3633C35.6203 19.6005 35.4278 19.793 35.1906 19.793ZM14.4711 19.793H9.56836C9.33117 19.793 9.13867 19.6005 9.13867 19.3633C9.13867 19.1261 9.33117 18.9336 9.56836 18.9336H14.4711C14.7083 18.9336 14.9008 19.1261 14.9008 19.3633C14.9008 19.6005 14.7083 19.793 14.4711 19.793Z" fill="white"/>
<path d="M27.5462 6.32492C20.0937 3.26296 11.5705 6.8225 8.50851 14.2741C5.44656 21.7266 9.00609 30.2499 16.4577 33.311C23.9102 36.373 32.4335 32.8143 35.4955 25.3627C38.5566 17.9102 34.9979 9.38687 27.5462 6.32492ZM28.9023 27.2911C27.0925 28.9677 24.6708 29.9921 22.0102 29.9921C19.3495 29.9921 17.1616 29.0648 15.3844 27.53C13.2291 25.6694 11.8644 22.9169 11.8644 19.8463C11.8644 14.2432 16.407 9.70054 22.0102 9.70054C27.6133 9.70054 32.1551 14.2432 32.1551 19.8463C32.1551 22.7888 30.903 25.4383 28.9023 27.2911Z" fill="white"/>
<path d="M28.2345 26.2339C26.6026 27.7456 24.4198 28.6694 22.0204 28.6694C19.621 28.6694 17.6487 27.8332 16.0469 26.4496C16.0787 24.1946 17.7098 22.3779 19.7173 22.3779H24.5719C26.5141 22.3779 28.1039 24.0804 28.2345 26.2339Z" fill="white"/>
</svg>
