<svg width="45" height="45" viewBox="0 0 45 45" fill="none" xmlns="http://www.w3.org/2000/svg">
<path d="M35.0169 19.7783L33.7104 19.517C33.4491 18.5589 33.0136 17.5137 32.491 16.6427L33.2749 15.5975C33.7104 14.9878 33.6233 14.1167 33.1007 13.5941L31.3587 11.8521C30.8361 11.2424 29.9651 11.2424 29.3554 11.6779L28.2231 12.4618C27.3521 11.9392 26.394 11.5908 25.3487 11.2424L25.0874 9.93591C25.0874 9.152 24.3906 8.62939 23.6067 8.62939H21.0808C20.2969 8.62939 19.6872 9.152 19.513 9.93591L19.3388 11.2424C18.2936 11.5037 17.3355 11.9392 16.4645 12.4618L15.4192 11.6779C14.8095 11.2424 13.9385 11.2424 13.4159 11.8521L11.6739 13.5941C11.0642 14.1167 11.0642 14.9878 11.4997 15.5975L12.2836 16.7298C11.761 17.6008 11.4126 18.5589 11.0642 19.6041L9.75769 19.8654C8.97378 19.8654 8.45117 20.5622 8.45117 21.3461V23.872C8.45117 24.656 8.97378 25.2657 9.75769 25.4399L11.0642 25.7012C11.3255 26.7464 11.761 27.7045 12.2836 28.5755L11.4997 29.5336C11.0642 30.1433 11.1513 31.0143 11.6739 31.5369L13.4159 33.2789C13.9385 33.8015 14.8095 33.8887 15.4192 33.4531L16.5516 32.6692C17.4226 33.1918 18.3807 33.5402 19.4259 33.8887L19.6872 35.1952C19.7743 35.9791 20.4711 36.5017 21.255 36.5017H23.7809C24.5648 36.5017 25.1745 35.9791 25.3487 35.1952L25.61 33.8887C26.6553 33.6273 27.6134 33.1918 28.4844 32.6692L29.6167 33.4531C30.2264 33.8887 31.0974 33.8015 31.62 33.2789L33.362 31.5369C33.8846 31.0143 33.9717 30.1433 33.5362 29.5336L32.7523 28.4013C33.2749 27.5303 33.6233 26.5722 33.9717 25.527L35.2782 25.2657C36.0622 25.1786 36.5848 24.4818 36.5848 23.6978V21.1719C36.3235 20.5622 35.8008 19.8654 35.0169 19.7783ZM22.3873 28.6626C18.9904 28.6626 16.2903 25.9625 16.2903 22.5655C16.2903 19.1686 18.9904 16.4685 22.3873 16.4685C25.6971 16.4685 28.4844 19.1686 28.4844 22.5655C28.4844 25.9625 25.7842 28.6626 22.3873 28.6626Z" fill="white"/>
<path d="M4.5313 18.9946C4.96681 19.0817 5.48941 18.8204 5.57651 18.3849C7.23143 11.591 12.8059 6.62623 19.5127 5.49392L18.0319 6.71333C17.6835 6.97464 17.5964 7.58434 17.8577 7.93274C18.119 8.28115 18.7287 8.36825 19.0772 8.10695L22.9096 5.14552C23.1709 4.97131 23.258 4.71001 23.258 4.44871C23.258 4.01321 22.9967 3.7519 22.6483 3.5777L18.2932 1.66148C17.8577 1.48728 17.3351 1.66148 17.1609 2.09699C16.9867 2.53249 17.1609 3.0551 17.5964 3.2293L18.9029 3.839C11.6736 5.23262 5.75071 10.6329 3.9216 17.9493C3.83449 18.472 4.0958 18.9075 4.5313 18.9946ZM18.2061 39.2891C11.4123 37.6341 6.44752 32.0597 5.31521 25.3529L6.53462 26.9207C6.79592 27.2691 7.40563 27.3562 7.75403 27.0949C8.10244 26.8336 8.18954 26.2239 7.92824 25.8755L4.96681 22.0431C4.7926 21.7818 4.5313 21.6947 4.27 21.6947C3.83449 21.6947 3.57319 21.956 3.39899 22.3044L1.48277 26.6594C1.30857 27.0949 1.48277 27.6175 1.91827 27.7917C2.35378 27.966 2.87638 27.7917 3.05059 27.3562L3.66029 26.0497C4.96681 33.2791 10.4542 39.202 17.7706 41.0311C18.2061 41.1182 18.7287 40.8569 18.8158 40.4214C18.99 39.8988 18.6416 39.4633 18.2061 39.2891ZM40.2427 25.7884C39.8072 25.7013 39.2846 25.9626 39.1975 26.4852C37.6296 33.4533 32.0552 38.5052 25.1742 39.6375L26.6549 38.5052C27.0033 38.2439 27.0904 37.6341 26.8291 37.2857C26.5678 36.9373 25.9581 36.8502 25.6097 37.1115L21.8644 39.9859C21.6031 40.1601 21.516 40.5085 21.516 40.7698C21.6031 41.1182 21.8644 41.3795 22.1257 41.4666L26.4807 43.3828C26.9162 43.557 27.4388 43.3828 27.613 42.9473C27.7872 42.5118 27.613 41.9892 27.1775 41.815L25.871 41.2924C33.1875 39.9859 39.1975 34.4114 40.9395 26.8336C41.0266 26.3981 40.7653 25.8755 40.2427 25.7884ZM43.2041 18.472C43.3783 18.0364 43.2041 17.5138 42.7686 17.3396C42.3331 17.1654 41.8105 17.3396 41.6363 17.7751L41.1137 19.0817C39.7201 11.6781 34.2327 5.75522 26.6549 4.01321C26.2194 3.9261 25.6968 4.18741 25.6097 4.71001C25.5226 5.14552 25.7839 5.66812 26.3065 5.75522C33.2746 7.32304 38.4135 12.8975 39.4588 19.7785L38.2393 18.2106C37.978 17.8622 37.3683 17.7751 37.0199 18.0364C36.6715 18.2978 36.5844 18.9075 36.8457 19.2559L39.8072 23.0883C40.1556 23.4367 40.504 23.4367 40.504 23.4367C40.8524 23.4367 41.2008 23.1754 41.2879 22.827L43.2041 18.472Z" fill="white"/>
</svg>
