<svg width="39" height="39" viewBox="0 0 39 39" fill="none" xmlns="http://www.w3.org/2000/svg">
<mask id="mask0_70_4083" style="mask-type:alpha" maskUnits="userSpaceOnUse" x="0" y="0" width="39" height="39">
<rect x="0.921875" y="0.922363" width="37.9167" height="37.9167" fill="#D9D9D9"/>
</mask>
<g mask="url(#mask0_70_4083)">
<path d="M4.87165 34.8892V32.5194H9.02194C7.75806 31.9746 6.73009 31.1237 5.93806 29.9667C5.14602 28.8097 4.75 27.4984 4.75 26.0329C4.75 24.0665 5.44224 22.3925 6.82673 21.0109C8.21121 19.6295 9.88876 18.9389 11.8594 18.9389V21.3083C10.5531 21.3083 9.43666 21.7676 8.51007 22.6863C7.58322 23.6047 7.11979 24.7259 7.11979 26.0498C7.11979 27.1723 7.46868 28.1653 8.16645 29.0287C8.86422 29.8921 9.75092 30.439 10.8265 30.6694V26.5645H13.1963V34.8892H4.87165ZM12.376 14.7459H27.3847V12.3761H12.376V14.7459ZM16.6598 33.3093V27.3848H22.6451V25.015H16.6598V21.0654H27.3847V18.6956H16.6598V15.475H6.45151V9.30765C6.45151 8.50956 6.72799 7.83404 7.28094 7.28109C7.83389 6.72814 8.50941 6.45166 9.3075 6.45166H30.4532C31.2513 6.45166 31.9268 6.72814 32.4797 7.28109C33.0327 7.83404 33.3092 8.50956 33.3092 9.30765V30.4533C33.3092 31.2514 33.0327 31.9269 32.4797 32.4799C31.9268 33.0328 31.2513 33.3093 30.4532 33.3093H16.6598Z" fill="white"/>
</g>
</svg>
