<svg width="42" height="42" viewBox="0 0 42 42" fill="none" xmlns="http://www.w3.org/2000/svg">
<path d="M36.6229 30.6439L31.4715 25.4925C30.2695 24.2905 28.3807 23.9471 26.8353 24.4622L25.1182 22.7451C28.7241 18.1089 28.209 11.4121 23.9162 7.11927C19.2799 2.48303 11.5529 2.48303 6.91663 7.11927C2.28039 11.7555 2.28039 19.4826 6.91663 24.1188C11.2094 28.4116 17.9062 28.7551 22.5425 25.3208L24.2596 27.0379C23.5727 28.5833 23.9162 30.4722 25.2899 31.6742L30.4413 36.8255C32.1584 38.5427 34.9058 38.5427 36.4512 36.8255C37.9966 35.1084 38.1683 32.361 36.6229 30.6439ZM21.6839 21.8865C18.2497 25.3208 12.9266 25.3208 9.49232 21.8865C6.05807 18.4523 6.05807 13.1292 9.49232 9.69496C12.9266 6.26071 18.2497 6.26071 21.6839 9.69496C24.9464 13.1292 24.9464 18.4523 21.6839 21.8865Z" fill="white"/>
</svg>
