<svg width="45" height="45" viewBox="0 0 45 45" fill="none" xmlns="http://www.w3.org/2000/svg">
<path d="M22.1234 25.1384C24.7825 25.1384 26.9382 22.9827 26.9382 20.3236C26.9382 17.6644 24.7825 15.5088 22.1234 15.5088C19.4642 15.5088 17.3086 17.6644 17.3086 20.3236C17.3086 22.9827 19.4642 25.1384 22.1234 25.1384Z" fill="white"/>
<path d="M38.6308 18.2606C37.7793 18.263 36.9494 18.5287 36.2549 19.0213C35.5604 19.5138 35.0352 20.2092 34.7514 21.0119H33.0318C32.7277 18.5883 31.6258 16.3347 29.8998 14.6062C28.1738 12.8777 25.9218 11.7726 23.4986 11.4649V9.7591C24.4164 9.43459 25.19 8.79605 25.6826 7.95633C26.1752 7.11662 26.3551 6.1298 26.1905 5.17029C26.0258 4.21078 25.5273 3.34036 24.783 2.71286C24.0387 2.08537 23.0965 1.74121 22.1229 1.74121C21.1494 1.74121 20.2072 2.08537 19.4629 2.71286C18.7186 3.34036 18.22 4.21078 18.0554 5.17029C17.8908 6.1298 18.0707 7.11662 18.5633 7.95633C19.0558 8.79605 19.8294 9.43459 20.7473 9.7591V11.4649C18.3241 11.7726 16.0721 12.8777 14.3461 14.6062C12.6201 16.3347 11.5182 18.5883 11.214 21.0119H9.49445C9.16994 20.0941 8.5314 19.3205 7.69168 18.8279C6.85197 18.3353 5.86515 18.1554 4.90564 18.3201C3.94613 18.4847 3.07571 18.9832 2.44822 19.7275C1.82072 20.4719 1.47656 21.414 1.47656 22.3876C1.47656 23.3611 1.82072 24.3033 2.44822 25.0476C3.07571 25.7919 3.94613 26.2905 4.90564 26.4551C5.86515 26.6197 6.85197 26.4398 7.69168 25.9473C8.5314 25.4547 9.16994 24.6811 9.49445 23.7632H11.214C11.3623 24.9594 11.7111 26.1221 12.2458 27.2024C12.9555 25.7481 13.9799 24.47 15.2447 23.4606C14.7895 22.4777 14.5547 21.4072 14.5568 20.3241C14.5616 18.5571 15.1825 16.8471 16.3124 15.4887C17.4424 14.1302 19.0107 13.2083 20.7473 12.8818C21.6566 12.7134 22.5892 12.7134 23.4986 12.8818C25.2351 13.2083 26.8035 14.1302 27.9334 15.4887C29.0634 16.8471 29.6842 18.5571 29.689 20.3241C29.6911 21.4072 29.4564 22.4777 29.0012 23.4606C30.266 24.47 31.2904 25.7481 32.0001 27.2024C32.5347 26.1221 32.8835 24.9594 33.0318 23.7632H34.7514C35.0038 24.477 35.4476 25.1076 36.0344 25.5861C36.6212 26.0645 37.3282 26.3723 38.0782 26.4758C38.8282 26.5793 39.5922 26.4745 40.2866 26.1728C40.981 25.8712 41.5791 25.3843 42.0153 24.7655C42.4516 24.1467 42.7092 23.4199 42.76 22.6645C42.8108 21.9091 42.6528 21.1543 42.3034 20.4827C41.9539 19.8111 41.4265 19.2485 40.7787 18.8566C40.1309 18.4647 39.3878 18.2585 38.6308 18.2606Z" fill="white"/>
<path d="M36.128 35.9787C35.524 35.3777 34.7489 34.9785 33.909 34.8356C33.0692 34.6927 32.2056 34.8133 31.437 35.1808L27.9428 31.6866C28.7361 31.2012 29.4622 30.6139 30.1026 29.9396C29.6706 28.2899 28.7383 26.8146 27.4338 25.7163C26.0166 27.1076 24.1099 27.8871 22.1238 27.8871C20.1378 27.8871 18.2311 27.1076 16.8138 25.7163C15.5093 26.8146 14.577 28.2899 14.1451 29.9396C14.7992 30.6274 15.5389 31.2285 16.3461 31.7279L12.8795 35.1945C12.1105 34.8439 11.2543 34.7312 10.4209 34.8709C9.58739 35.0106 8.81475 35.3964 8.20224 35.9787C7.66441 36.5117 7.28361 37.1825 7.10154 37.9175C6.91947 38.6526 6.94314 39.4235 7.16996 40.146C7.39678 40.8685 7.818 41.5146 8.38752 42.0137C8.95703 42.5127 9.65288 42.8455 10.3989 42.9755C11.1449 43.1055 11.9123 43.0278 12.617 42.7508C13.3218 42.4738 13.9368 42.0082 14.3946 41.4051C14.8525 40.8019 15.1355 40.0844 15.2128 39.3311C15.2901 38.5778 15.1587 37.8178 14.8329 37.1342L19.0286 33.0073C21.0684 33.631 23.248 33.631 25.2878 33.0073L29.4973 37.2305C29.1715 37.9141 29.0401 38.6741 29.1174 39.4274C29.1947 40.1807 29.4778 40.8982 29.9356 41.5013C30.3934 42.1045 31.0084 42.5701 31.7132 42.8471C32.4179 43.1241 33.1853 43.2018 33.9313 43.0718C34.6773 42.9418 35.3732 42.609 35.9427 42.11C36.5122 41.6109 36.9334 40.9648 37.1602 40.2423C37.3871 39.5198 37.4107 38.7489 37.2287 38.0138C37.0466 37.2788 36.6658 36.608 36.128 36.075V35.9787Z" fill="white"/>
</svg>
