<svg width="40" height="40" viewBox="0 0 40 40" fill="none" xmlns="http://www.w3.org/2000/svg">
<path d="M3.33464 23.1665C2.33464 23.1665 1.66797 23.8332 1.66797 24.8332V28.1665C1.66797 29.1665 2.33464 29.8332 3.33464 29.8332C4.33464 29.8332 5.0013 29.1665 5.0013 28.1665V24.8332C5.0013 23.9998 4.33464 23.1665 3.33464 23.1665ZM36.668 23.1665C35.668 23.1665 35.0013 23.8332 35.0013 24.8332V28.1665C35.0013 29.1665 35.668 29.8332 36.668 29.8332C37.668 29.8332 38.3346 29.1665 38.3346 28.1665V24.8332C38.3346 23.9998 37.668 23.1665 36.668 23.1665ZM28.3346 11.4998H21.668V9.49983C23.3346 8.49983 23.8346 6.49983 22.8346 4.99983C21.8346 3.49983 20.0013 2.66649 18.3346 3.66649C16.668 4.66649 16.168 6.66649 17.168 8.16649C17.5013 8.66649 17.8346 9.16649 18.3346 9.33316V11.4998H11.668C8.83464 11.4998 6.66797 13.6665 6.66797 16.4998V31.4998C6.66797 34.3332 8.83464 36.4998 11.668 36.4998H28.3346C31.168 36.4998 33.3346 34.3332 33.3346 31.4998V16.4998C33.3346 13.8332 31.168 11.4998 28.3346 11.4998ZM15.0013 28.1665C14.0013 28.1665 13.3346 27.4998 13.3346 26.4998C13.3346 25.4998 14.0013 24.8332 15.0013 24.8332C16.0013 24.8332 16.668 25.4998 16.668 26.4998C16.668 27.4998 16.0013 28.1665 15.0013 28.1665ZM22.0013 18.1665H18.0013L17.168 14.8332H22.8346L22.0013 18.1665ZM25.0013 28.1665C24.0013 28.1665 23.3346 27.4998 23.3346 26.4998C23.3346 25.4998 24.0013 24.8332 25.0013 24.8332C26.0013 24.8332 26.668 25.4998 26.668 26.4998C26.668 27.4998 26.0013 28.1665 25.0013 28.1665Z" fill="white"/>
</svg>
