<svg width="43" height="43" viewBox="0 0 43 43" fill="none" xmlns="http://www.w3.org/2000/svg">
<path d="M36.8939 18.8392C36.5075 11.9902 31.4322 6.28273 24.6535 5.12367C24.5481 3.77143 23.4242 2.68262 22.0368 2.68262H20.2807C18.8933 2.68262 17.7869 3.75387 17.664 5.10611C10.8501 6.23004 5.73974 11.9551 5.35339 18.8392C4.10652 19.0499 3.1582 20.1212 3.1582 21.4207V23.1769C3.1582 24.6345 4.33482 25.8111 5.79243 25.8111H7.54858C9.00619 25.8111 10.1828 24.6345 10.1828 23.1769V21.4207C10.1828 20.1212 9.23448 19.0499 7.98762 18.8392C8.35641 13.36 12.378 8.81158 17.7518 7.75789C18.0504 8.88183 19.0689 9.70722 20.2807 9.70722H22.0368C23.2486 9.70722 24.2496 8.88183 24.5657 7.77546C29.9044 8.84671 33.8908 13.3951 34.2596 18.8392C33.0128 19.0499 32.0644 20.1212 32.0644 21.4207V23.1769C32.0644 24.6345 33.2411 25.8111 34.6987 25.8111H36.4548C37.9124 25.8111 39.089 24.6345 39.089 23.1769V21.4207C39.089 20.1212 38.1407 19.0324 36.8939 18.8392Z" fill="white"/>
<path d="M27.7437 29.1132L24.8636 31.6596H17.4L14.5199 29.1132C12.8515 27.7434 12.8515 26.6897 14.116 25.074L19.1912 18.6465C19.5425 18.2075 19.9464 17.9089 20.403 17.7509C20.8771 17.5928 21.3864 17.5928 21.8781 17.7509C22.3172 17.9089 22.7211 18.2075 23.0899 18.6465L28.1476 25.0565C29.4296 26.6721 29.3593 27.6731 27.7437 29.1132Z" fill="white"/>
<path d="M23.4402 38.6838H18.8917C17.2761 38.6838 16.0643 37.3667 16.3805 35.9618L16.9249 33.5207C17.0302 33.029 17.4693 32.6953 17.961 32.6953H24.3709C24.8627 32.6953 25.2841 33.029 25.4071 33.5207L25.9515 35.9618C26.2851 37.4545 25.1612 38.6838 23.4402 38.6838Z" fill="white"/>
</svg>
