<svg width="38" height="33" viewBox="0 0 38 33" fill="none" xmlns="http://www.w3.org/2000/svg">
<g clip-path="url(#clip0_70_4064)">
<path d="M10.9665 25.8718C11.1975 26.0949 11.5069 26.2184 11.8281 26.2156C12.1492 26.2128 12.4564 26.084 12.6835 25.8569C12.9106 25.6298 13.0394 25.3226 13.0422 25.0015C13.045 24.6804 12.9215 24.371 12.6984 24.14L8.88805 20.3296L12.6984 16.5192C12.9215 16.2882 13.045 15.9789 13.0422 15.6577C13.0394 15.3366 12.9106 15.0294 12.6835 14.8023C12.4564 14.5752 12.1492 14.4464 11.8281 14.4436C11.5069 14.4408 11.1975 14.5643 10.9665 14.7874L6.29025 19.4637C6.06063 19.6934 5.93164 20.0048 5.93164 20.3296C5.93164 20.6544 6.06063 20.9659 6.29025 21.1955L10.9665 25.8718ZM25.8871 25.8718C26.1168 26.1015 26.4283 26.2304 26.753 26.2304C27.0778 26.2304 27.3893 26.1015 27.619 25.8718L32.2953 21.1955C32.5249 20.9659 32.6539 20.6544 32.6539 20.3296C32.6539 20.0048 32.5249 19.6934 32.2953 19.4637L27.619 14.7874C27.388 14.5643 27.0786 14.4408 26.7574 14.4436C26.4363 14.4464 26.1291 14.5752 25.902 14.8023C25.6749 15.0294 25.5461 15.3366 25.5433 15.6577C25.5405 15.9789 25.664 16.2882 25.8871 16.5192L29.6975 20.3296L25.8871 24.14C25.6575 24.3697 25.5285 24.6811 25.5285 25.0059C25.5285 25.3307 25.6575 25.6422 25.8871 25.8718ZM16.6337 26.9791C16.9355 27.0994 17.2727 27.0949 17.5712 26.9668C17.8698 26.8387 18.1053 26.5973 18.226 26.2956L22.6352 15.2724C22.6949 15.123 22.7246 14.9633 22.7225 14.8024C22.7205 14.6415 22.6867 14.4826 22.6233 14.3347C22.5598 14.1869 22.4679 14.053 22.3526 13.9407C22.2374 13.8283 22.1012 13.7398 21.9518 13.6802C21.8024 13.6205 21.6427 13.5908 21.4818 13.5929C21.3209 13.5949 21.162 13.6286 21.0141 13.6921C20.8663 13.7556 20.7324 13.8475 20.6201 13.9627C20.5077 14.078 20.4192 14.2142 20.3596 14.3636L15.9503 25.3868C15.8905 25.5362 15.8608 25.696 15.8629 25.8569C15.8649 26.0178 15.8986 26.1767 15.9621 26.3246C16.0255 26.4724 16.1175 26.6063 16.2328 26.7186C16.348 26.8309 16.4842 26.9194 16.6337 26.9791Z" fill="white"/>
<path d="M32.7667 0.732422H5.82109C4.52213 0.733719 3.27675 1.2503 2.35825 2.1688C1.43975 3.0873 0.923172 4.33268 0.921875 5.63163L0.921875 27.6781C0.923172 28.977 1.43975 30.2224 2.35825 31.1409C3.27675 32.0594 4.52213 32.576 5.82109 32.5773H32.7667C34.0657 32.576 35.3111 32.0594 36.2296 31.1409C37.1481 30.2224 37.6647 28.977 37.666 27.6781V5.63163C37.6647 4.33268 37.1481 3.0873 36.2296 2.1688C35.3111 1.2503 34.0657 0.733719 32.7667 0.732422ZM14.407 4.40683H14.4192C14.7435 4.40845 15.0539 4.53863 15.2824 4.76881C15.5108 4.99898 15.6387 5.31037 15.6379 5.63468C15.6371 5.95899 15.5077 6.26973 15.2781 6.49877C15.0485 6.7278 14.7374 6.85642 14.4131 6.85642C14.0888 6.85642 13.7777 6.7278 13.5481 6.49877C13.3185 6.26973 13.1891 5.95899 13.1883 5.63468C13.1875 5.31037 13.3153 4.99898 13.5438 4.76881C13.7722 4.53863 14.0827 4.40845 14.407 4.40683ZM10.7325 4.40683H10.7448C11.0691 4.40845 11.3795 4.53863 11.608 4.76881C11.8364 4.99898 11.9643 5.31037 11.9635 5.63468C11.9627 5.95899 11.8333 6.26973 11.6037 6.49877C11.374 6.7278 11.063 6.85642 10.7387 6.85642C10.4144 6.85642 10.1033 6.7278 9.87369 6.49877C9.64408 6.26973 9.51468 5.95899 9.51387 5.63468C9.51306 5.31037 9.6409 4.99898 9.86936 4.76881C10.0978 4.53863 10.4082 4.40845 10.7325 4.40683ZM7.05814 4.40683H7.07039C7.39469 4.40845 7.70511 4.53863 7.93357 4.76881C8.16203 4.99898 8.28987 5.31037 8.28906 5.63468C8.28825 5.95899 8.15885 6.26973 7.92924 6.49877C7.69964 6.7278 7.38857 6.85642 7.06426 6.85642C6.73995 6.85642 6.42888 6.7278 6.19928 6.49877C5.96967 6.26973 5.84027 5.95899 5.83946 5.63468C5.83865 5.31037 5.96649 4.99898 6.19495 4.76881C6.42341 4.53863 6.73383 4.40845 7.05814 4.40683ZM35.2164 27.6781C35.2157 28.3276 34.9574 28.9503 34.4982 29.4095C34.0389 29.8688 33.4162 30.127 32.7667 30.1277H5.82109C5.17161 30.127 4.54892 29.8688 4.08967 29.4095C3.63042 28.9503 3.37213 28.3276 3.37148 27.6781V10.5308H35.2164V27.6781Z" fill="white"/>
</g>
<defs>
<clipPath id="clip0_70_4064">
<rect width="36.7441" height="31.8449" fill="white" transform="translate(0.921875 0.732422)"/>
</clipPath>
</defs>
</svg>
